<?xml version="1.0" encoding="UTF-8"?><svg id="Layer_1" xmlns="http://www.w3.org/2000/svg" viewBox="0 0 200 200"><defs><style>.cls-1{fill:#fff;}.cls-2{fill:#296933;}</style></defs><circle class="cls-2" cx="100" cy="100" r="100"/><path class="cls-1" d="M44.26,23.22c3.04.15,7.01.29,11.93.43,4.92.15,9.76.22,14.53.22,6.79,0,13.3-.07,19.52-.22,6.22-.14,10.63-.22,13.23-.22,17.49,0,30.58,3.98,39.26,11.93,8.68,7.95,13.01,18.22,13.01,30.8,0,5.21-.87,10.67-2.6,16.38-1.74,5.71-4.74,10.99-9,15.83-4.27,4.85-10.09,8.78-17.46,11.82-7.37,3.04-16.7,4.56-27.98,4.56h-20.82v-4.34h18.65c10.26,0,18.11-1.95,23.53-5.86,5.42-3.9,9.11-9.04,11.06-15.4,1.95-6.36,2.93-13.23,2.93-20.61,0-13.74-2.71-24-8.14-30.8-5.42-6.8-14.71-10.19-27.87-10.19-6.65,0-10.99,1.23-13.01,3.69-2.03,2.46-3.04,7.45-3.04,14.97v107.58c0,5.21.54,9.11,1.63,11.71,1.08,2.6,3.21,4.34,6.4,5.21,3.18.87,7.81,1.45,13.88,1.74v4.34c-3.76-.29-8.54-.47-14.31-.54-5.79-.07-11.64-.11-17.57-.11s-10.92.04-15.83.11c-4.92.07-8.89.25-11.93.54v-4.34c4.91-.29,8.64-.87,11.17-1.74,2.53-.87,4.23-2.6,5.1-5.21s1.3-6.51,1.3-11.71V46.21c0-5.35-.43-9.29-1.3-11.82-.87-2.53-2.57-4.26-5.1-5.21-2.53-.94-6.26-1.48-11.17-1.63v-4.34Z"/></svg>