<?xml version="1.0" encoding="UTF-8"?>
<svg id="Layer_1" data-name="Layer 1" xmlns="http://www.w3.org/2000/svg" viewBox="0 0 1000 263.64">
  <defs>
    <style>
      .cls-1 {
      fill: #C4A052;
      }

      .cls-2 {
      fill: #2B5C3C;
      }
    </style>
  </defs>
  <g>
    <g>
      <path class="cls-2"
        d="M307.53,212.02c.66.03,1.52.06,2.59.09,1.07.03,2.12.04,3.16.04,1.48,0,2.89-.01,4.24-.04,1.35-.03,2.31-.04,2.87-.04,2.55,0,4.66.34,6.34,1.03,1.68.69,2.94,1.62,3.77,2.8.83,1.18,1.25,2.5,1.25,3.96,0,.89-.19,1.85-.57,2.86-.38,1.01-1.03,1.97-1.96,2.86-.93.89-2.19,1.63-3.79,2.21-1.6.58-3.63.87-6.08.87h-4.52v-.89h4.05c2.23,0,3.94-.34,5.11-1.01,1.18-.67,1.98-1.57,2.4-2.68.42-1.12.64-2.36.64-3.74,0-2.36-.59-4.18-1.77-5.48-1.18-1.3-3.2-1.95-6.06-1.95-1.45,0-2.39.25-2.83.76-.44.51-.66,1.54-.66,3.09v22.19c0,1.07.09,1.88.28,2.42.19.54.56.89,1.11,1.07.55.18,1.36.3,2.43.36v.89c-.72-.06-1.63-.1-2.71-.11-1.08-.01-2.18-.02-3.28-.02-1.23,0-2.37,0-3.44.02-1.07.02-1.93.05-2.59.11v-.89c1.07-.06,1.88-.18,2.43-.36.55-.18.92-.54,1.11-1.07.19-.54.28-1.34.28-2.42v-22.19c0-1.1-.09-1.92-.28-2.44-.19-.52-.56-.88-1.11-1.07-.55-.19-1.36-.31-2.43-.34v-.89ZM315.02,227.9c1.7.06,3.03.13,4.01.2s1.77.14,2.38.2c.61.06,1.2.13,1.77.22,2.11.33,3.62.93,4.55,1.81.93.88,1.61,2.24,2.05,4.09l1.18,4.56c.31,1.31.64,2.26.97,2.84.33.58.84.86,1.53.83.53-.03.98-.19,1.34-.49.36-.3.75-.7,1.15-1.21l.71.49c-.66.92-1.34,1.63-2.05,2.12s-1.7.74-2.99.74c-1.16,0-2.18-.33-3.06-.98-.88-.66-1.54-1.94-1.98-3.85l-1.04-4.47c-.28-1.28-.61-2.39-.97-3.33-.36-.94-.86-1.68-1.51-2.21-.64-.54-1.6-.81-2.85-.81h-5.09l-.09-.76Z" />
      <path class="cls-2"
        d="M371.02,212.02c-.13,1.04-.21,2.06-.26,3.04s-.07,1.73-.07,2.24c0,.54.02,1.05.05,1.54.03.49.06.9.09,1.23h-1.08c-.19-1.76-.46-3.15-.8-4.18-.35-1.03-.94-1.76-1.77-2.19-.83-.43-2.08-.65-3.75-.65h-3.91c-1.07,0-1.88.08-2.43.25-.55.16-.92.51-1.11,1.03-.19.52-.28,1.34-.28,2.44v22.19c0,1.07.09,1.88.28,2.42.19.54.56.89,1.11,1.05.55.16,1.36.25,2.43.25h3.44c1.98,0,3.48-.25,4.5-.76,1.02-.51,1.76-1.33,2.21-2.48.46-1.15.79-2.71,1.01-4.68h1.08c-.09.81-.14,1.88-.14,3.22,0,.57.02,1.38.07,2.44.05,1.06.13,2.16.26,3.29-1.6-.06-3.41-.1-5.42-.11-2.01-.01-3.8-.02-5.37-.02h-2.66c-1.08,0-2.25,0-3.51.02-1.26.02-2.53.03-3.82.04-1.29.02-2.51.04-3.68.07v-.89c1.07-.06,1.88-.18,2.43-.36.55-.18.92-.54,1.11-1.07.19-.54.28-1.34.28-2.42v-22.19c0-1.1-.09-1.92-.28-2.44-.19-.52-.56-.88-1.11-1.07-.55-.19-1.36-.31-2.43-.34v-.89c1.16.03,2.39.05,3.68.07,1.29.02,2.56.03,3.82.04,1.26.02,2.43.02,3.51.02h2.66c1.44,0,3.09,0,4.93-.02,1.84-.01,3.48-.05,4.93-.11ZM362.91,227.32v.89h-8.63v-.89h8.63ZM364.28,221.41c-.13,1.7-.18,3-.16,3.89.02.89.02,1.72.02,2.46s.02,1.57.05,2.46c.03.89.11,2.19.24,3.89h-1.08c-.13-.95-.28-1.89-.45-2.8-.17-.91-.55-1.66-1.13-2.24-.58-.58-1.56-.87-2.95-.87v-.89c1.04,0,1.83-.2,2.38-.6.55-.4.95-.92,1.2-1.54s.42-1.28.52-1.95c.09-.67.19-1.28.28-1.81h1.08Z" />
      <path class="cls-2"
        d="M398.87,211.79l11.5,28.14c.47,1.13,1.01,1.89,1.6,2.26.6.37,1.15.57,1.65.6v.89c-.63-.06-1.4-.1-2.31-.11-.91-.01-1.82-.02-2.73-.02-1.23,0-2.37,0-3.44.02-1.07.02-1.93.05-2.59.11v-.89c1.6-.06,2.62-.32,3.06-.78.44-.46.35-1.45-.28-2.97l-8.77-22.23.75-.58-8.2,20.22c-.5,1.19-.8,2.2-.9,3.02-.09.82,0,1.47.26,1.95.27.48.72.82,1.37,1.03.64.21,1.45.33,2.43.36v.89c-.88-.06-1.8-.1-2.76-.11-.96-.01-1.85-.02-2.66-.02s-1.45,0-2,.02c-.55.02-1.06.05-1.53.11v-.89c.63-.15,1.27-.5,1.93-1.05.66-.55,1.26-1.5,1.79-2.84l11.08-27.11h.75ZM404.62,230.81v.89h-14.04l.47-.89h13.57Z" />
      <path class="cls-2"
        d="M435.82,212.02v.89c-1.07.03-1.88.14-2.43.34-.55.19-.92.55-1.11,1.07-.19.52-.28,1.34-.28,2.44v22.19c0,1.07.09,1.88.28,2.42.19.54.56.89,1.11,1.05.55.16,1.36.25,2.43.25h3.44c1.48,0,2.68-.15,3.61-.45.93-.3,1.66-.77,2.21-1.41.55-.64.97-1.5,1.25-2.57.28-1.07.5-2.39.66-3.94h1.08c-.09.92-.14,2.15-.14,3.67,0,.57.02,1.38.07,2.44.05,1.06.13,2.16.26,3.29-1.6-.06-3.41-.1-5.42-.11-2.01-.01-3.8-.02-5.37-.02h-2.66c-1.08,0-2.25,0-3.51.02-1.26.02-2.53.03-3.82.04-1.29.02-2.51.04-3.68.07v-.89c1.07-.06,1.88-.18,2.43-.36.55-.18.92-.54,1.11-1.07.19-.54.28-1.34.28-2.42v-22.19c0-1.1-.09-1.92-.28-2.44-.19-.52-.56-.88-1.11-1.07-.55-.19-1.36-.31-2.43-.34v-.89c.66.03,1.52.06,2.59.09,1.07.03,2.21.04,3.44.04,1.1,0,2.19-.01,3.28-.04,1.08-.03,1.99-.06,2.71-.09Z" />
      <path class="cls-2"
        d="M505.63,212.02c-.13,1.04-.21,2.06-.26,3.04s-.07,1.73-.07,2.24c0,.54.02,1.05.05,1.54.03.49.06.9.09,1.23h-1.08c-.19-1.76-.46-3.15-.8-4.18-.35-1.03-.94-1.76-1.77-2.19-.83-.43-2.08-.65-3.75-.65h-3.91c-1.07,0-1.88.08-2.43.25-.55.16-.92.51-1.11,1.03-.19.52-.28,1.34-.28,2.44v22.19c0,1.07.09,1.88.28,2.42.19.54.56.89,1.11,1.05.55.16,1.36.25,2.43.25h3.44c1.98,0,3.48-.25,4.5-.76,1.02-.51,1.76-1.33,2.21-2.48.46-1.15.79-2.71,1.01-4.68h1.08c-.09.81-.14,1.88-.14,3.22,0,.57.02,1.38.07,2.44.05,1.06.13,2.16.26,3.29-1.6-.06-3.41-.1-5.42-.11-2.01-.01-3.8-.02-5.37-.02h-2.66c-1.08,0-2.25,0-3.51.02-1.26.02-2.53.03-3.82.04-1.29.02-2.51.04-3.68.07v-.89c1.07-.06,1.88-.18,2.43-.36.55-.18.92-.54,1.11-1.07.19-.54.28-1.34.28-2.42v-22.19c0-1.1-.09-1.92-.28-2.44-.19-.52-.56-.88-1.11-1.07-.55-.19-1.36-.31-2.43-.34v-.89c1.16.03,2.39.05,3.68.07,1.29.02,2.56.03,3.82.04,1.26.02,2.43.02,3.51.02h2.66c1.44,0,3.09,0,4.93-.02,1.84-.01,3.48-.05,4.93-.11ZM497.52,227.32v.89h-8.63v-.89h8.63ZM498.89,221.41c-.13,1.7-.18,3-.16,3.89.02.89.02,1.72.02,2.46s.02,1.57.05,2.46c.03.89.11,2.19.24,3.89h-1.08c-.13-.95-.28-1.89-.45-2.8-.17-.91-.55-1.66-1.13-2.24-.58-.58-1.56-.87-2.95-.87v-.89c1.04,0,1.83-.2,2.38-.6.55-.4.95-.92,1.2-1.54s.42-1.28.52-1.95c.09-.67.19-1.28.28-1.81h1.08Z" />
      <path class="cls-2"
        d="M530.32,211.53c1.57,0,2.76.17,3.58.51.82.34,1.54.72,2.17,1.14.38.21.68.37.92.47.24.1.46.16.68.16.31,0,.54-.16.68-.49.14-.33.26-.82.35-1.48h1.08c-.03.51-.07,1.11-.12,1.81-.05.7-.08,1.63-.09,2.77-.02,1.15-.02,2.66-.02,4.54h-1.08c-.09-1.43-.42-2.8-.99-4.12-.57-1.31-1.39-2.39-2.47-3.22-1.08-.83-2.51-1.25-4.27-1.25-1.67,0-3.04.48-4.12,1.43-1.08.95-1.63,2.21-1.63,3.76,0,1.34.36,2.47,1.08,3.38.72.91,1.69,1.73,2.9,2.46,1.21.73,2.52,1.51,3.94,2.35,1.63.95,3.09,1.9,4.36,2.84,1.27.94,2.28,1.98,3.02,3.11.74,1.13,1.11,2.5,1.11,4.12,0,1.91-.46,3.49-1.37,4.74-.91,1.25-2.12,2.19-3.63,2.82-1.51.63-3.17.94-5,.94-1.67,0-2.99-.18-3.96-.54-.97-.36-1.81-.73-2.5-1.12-.69-.42-1.23-.63-1.6-.63-.31,0-.54.16-.68.49-.14.33-.26.82-.35,1.48h-1.08c.06-.63.1-1.36.12-2.21.02-.85.03-1.96.05-3.33.02-1.37.02-3.1.02-5.19h1.08c.12,1.79.48,3.46,1.06,5.01.58,1.55,1.48,2.8,2.69,3.74,1.21.94,2.82,1.41,4.83,1.41,1.04,0,2.02-.2,2.95-.6.93-.4,1.69-1.04,2.29-1.92.6-.88.9-2.02.9-3.42,0-1.22-.31-2.29-.92-3.2-.61-.91-1.47-1.76-2.57-2.55-1.1-.79-2.39-1.6-3.86-2.44-1.48-.86-2.86-1.74-4.15-2.64s-2.32-1.93-3.09-3.11c-.77-1.18-1.15-2.6-1.15-4.27,0-1.76.42-3.21,1.25-4.36.83-1.15,1.93-2,3.28-2.55,1.35-.55,2.8-.83,4.34-.83Z" />
      <path class="cls-2"
        d="M581.04,212.02c-.13,1.13-.21,2.23-.26,3.29-.05,1.06-.07,1.87-.07,2.44,0,.72.02,1.39.05,2.01.03.63.06,1.18.09,1.66h-1.08c-.22-2.09-.52-3.74-.9-4.94-.38-1.21-1.04-2.08-1.98-2.62-.94-.54-2.4-.81-4.38-.81h-2.55v25.46c0,1.19.12,2.09.35,2.68.24.6.7,1,1.39,1.21.69.21,1.7.34,3.02.4v.89c-.82-.06-1.85-.1-3.11-.11-1.26-.01-2.53-.02-3.82-.02-1.41,0-2.74,0-3.98.02-1.24.02-2.24.05-2.99.11v-.89c1.32-.06,2.33-.19,3.02-.4.69-.21,1.16-.61,1.39-1.21.24-.6.35-1.49.35-2.68v-25.46h-2.54c-1.95,0-3.4.27-4.36.81-.96.54-1.63,1.41-2,2.62-.38,1.21-.68,2.86-.9,4.94h-1.08c.06-.48.1-1.03.12-1.66.02-.63.02-1.3.02-2.01,0-.57-.02-1.38-.07-2.44-.05-1.06-.13-2.15-.26-3.29,1.32.03,2.76.06,4.31.09,1.55.03,3.12.04,4.69.04h8.56c1.55,0,3.12-.01,4.69-.04,1.57-.03,3-.06,4.29-.09Z" />
      <path class="cls-2"
        d="M604.84,211.79l11.5,28.14c.47,1.13,1.01,1.89,1.6,2.26.6.37,1.15.57,1.65.6v.89c-.63-.06-1.4-.1-2.31-.11-.91-.01-1.82-.02-2.73-.02-1.23,0-2.37,0-3.44.02-1.07.02-1.93.05-2.59.11v-.89c1.6-.06,2.62-.32,3.06-.78.44-.46.35-1.45-.28-2.97l-8.77-22.23.75-.58-8.2,20.22c-.5,1.19-.8,2.2-.9,3.02-.09.82,0,1.47.26,1.95.27.48.72.82,1.37,1.03.64.21,1.45.33,2.43.36v.89c-.88-.06-1.8-.1-2.76-.11-.96-.01-1.85-.02-2.66-.02s-1.45,0-2,.02c-.55.02-1.06.05-1.53.11v-.89c.63-.15,1.27-.5,1.93-1.05.66-.55,1.26-1.5,1.79-2.84l11.08-27.11h.75ZM610.59,230.81v.89h-14.04l.47-.89h13.57Z" />
      <path class="cls-2"
        d="M654.28,212.02c-.13,1.13-.21,2.23-.26,3.29-.05,1.06-.07,1.87-.07,2.44,0,.72.02,1.39.05,2.01.03.63.06,1.18.09,1.66h-1.08c-.22-2.09-.52-3.74-.9-4.94-.38-1.21-1.04-2.08-1.98-2.62-.94-.54-2.4-.81-4.38-.81h-2.55v25.46c0,1.19.12,2.09.35,2.68.24.6.7,1,1.39,1.21.69.21,1.7.34,3.02.4v.89c-.82-.06-1.85-.1-3.11-.11-1.26-.01-2.53-.02-3.82-.02-1.41,0-2.74,0-3.98.02-1.24.02-2.24.05-2.99.11v-.89c1.32-.06,2.33-.19,3.02-.4.69-.21,1.16-.61,1.39-1.21.24-.6.35-1.49.35-2.68v-25.46h-2.54c-1.95,0-3.4.27-4.36.81-.96.54-1.63,1.41-2,2.62-.38,1.21-.68,2.86-.9,4.94h-1.08c.06-.48.1-1.03.12-1.66.02-.63.02-1.3.02-2.01,0-.57-.02-1.38-.07-2.44-.05-1.06-.13-2.15-.26-3.29,1.32.03,2.76.06,4.31.09,1.55.03,3.12.04,4.69.04h8.56c1.55,0,3.12-.01,4.69-.04,1.57-.03,3-.06,4.29-.09Z" />
      <path class="cls-2"
        d="M690.57,212.02c-.13,1.04-.21,2.06-.26,3.04s-.07,1.73-.07,2.24c0,.54.02,1.05.05,1.54.03.49.06.9.09,1.23h-1.08c-.19-1.76-.46-3.15-.8-4.18-.35-1.03-.94-1.76-1.77-2.19-.83-.43-2.08-.65-3.75-.65h-3.91c-1.07,0-1.88.08-2.43.25-.55.16-.92.51-1.11,1.03-.19.52-.28,1.34-.28,2.44v22.19c0,1.07.09,1.88.28,2.42.19.54.56.89,1.11,1.05.55.16,1.36.25,2.43.25h3.44c1.98,0,3.48-.25,4.5-.76,1.02-.51,1.76-1.33,2.21-2.48.46-1.15.79-2.71,1.01-4.68h1.08c-.09.81-.14,1.88-.14,3.22,0,.57.02,1.38.07,2.44.05,1.06.13,2.16.26,3.29-1.6-.06-3.41-.1-5.42-.11-2.01-.01-3.8-.02-5.37-.02h-2.66c-1.08,0-2.25,0-3.51.02-1.26.02-2.53.03-3.82.04-1.29.02-2.51.04-3.68.07v-.89c1.07-.06,1.88-.18,2.43-.36.55-.18.92-.54,1.11-1.07.19-.54.28-1.34.28-2.42v-22.19c0-1.1-.09-1.92-.28-2.44-.19-.52-.56-.88-1.11-1.07-.55-.19-1.36-.31-2.43-.34v-.89c1.16.03,2.39.05,3.68.07,1.29.02,2.56.03,3.82.04,1.26.02,2.43.02,3.51.02h2.66c1.44,0,3.09,0,4.93-.02,1.84-.01,3.48-.05,4.93-.11ZM682.46,227.32v.89h-8.63v-.89h8.63ZM683.83,221.41c-.13,1.7-.18,3-.16,3.89.02.89.02,1.72.02,2.46s.02,1.57.05,2.46c.03.89.11,2.19.24,3.89h-1.08c-.13-.95-.28-1.89-.45-2.8-.17-.91-.55-1.66-1.13-2.24-.58-.58-1.56-.87-2.95-.87v-.89c1.04,0,1.83-.2,2.38-.6.55-.4.95-.92,1.2-1.54s.42-1.28.52-1.95c.09-.67.19-1.28.28-1.81h1.08Z" />
    </g>
    <g>
      <path class="cls-2"
        d="M21.87,76.56c2.14.1,4.94.19,8.4.29,3.46.1,6.87.14,10.23.14,4.78,0,9.37-.05,13.74-.14,4.38-.09,7.48-.14,9.32-.14,12.32,0,21.53,2.66,27.64,7.97,6.11,5.32,9.16,12.18,9.16,20.58,0,3.48-.61,7.13-1.83,10.94-1.22,3.82-3.34,7.34-6.34,10.58-3,3.24-7.1,5.87-12.29,7.9-5.19,2.03-11.76,3.04-19.7,3.04h-14.66v-2.9h13.13c7.23,0,12.75-1.3,16.57-3.91,3.82-2.61,6.41-6.04,7.79-10.29,1.37-4.25,2.06-8.84,2.06-13.77,0-9.18-1.91-16.04-5.73-20.58-3.82-4.54-10.36-6.81-19.62-6.81-4.68,0-7.74.82-9.16,2.46-1.43,1.64-2.14,4.98-2.14,10v71.9c0,3.48.38,6.09,1.15,7.83.76,1.74,2.26,2.9,4.5,3.48,2.24.58,5.5.97,9.77,1.16v2.9c-2.65-.19-6.01-.31-10.08-.36-4.07-.05-8.2-.07-12.37-.07s-7.69.02-11.15.07c-3.46.05-6.26.17-8.4.36v-2.9c3.46-.19,6.08-.58,7.86-1.16,1.78-.58,2.98-1.74,3.59-3.48.61-1.74.92-4.35.92-7.83v-71.9c0-3.57-.3-6.21-.92-7.9-.61-1.69-1.81-2.85-3.59-3.48-1.78-.63-4.4-.99-7.86-1.09v-2.9Z" />
      <path class="cls-2"
        d="M111.21,76.56c2.14.1,4.94.19,8.4.29,3.46.1,6.87.14,10.23.14,4.78,0,9.37-.05,13.74-.14,4.38-.09,7.48-.14,9.32-.14,8.25,0,15.09,1.11,20.54,3.33,5.45,2.22,9.52,5.24,12.22,9.06,2.7,3.82,4.05,8.09,4.05,12.83,0,2.9-.61,5.99-1.83,9.28-1.22,3.29-3.34,6.38-6.34,9.28-3,2.9-7.1,5.29-12.29,7.17-5.19,1.88-11.76,2.83-19.7,2.83h-14.66v-2.9h13.13c7.23,0,12.75-1.09,16.57-3.26s6.41-5.07,7.79-8.7c1.37-3.62,2.06-7.66,2.06-12.1,0-7.63-1.91-13.55-5.73-17.76-3.82-4.2-10.36-6.31-19.62-6.31-4.68,0-7.74.82-9.16,2.46-1.43,1.64-2.14,4.98-2.14,10v71.9c0,3.48.31,6.09.92,7.83.61,1.74,1.81,2.9,3.59,3.48,1.78.58,4.4.97,7.86,1.16v2.9c-2.34-.19-5.27-.31-8.78-.36-3.51-.05-7.05-.07-10.61-.07-3.97,0-7.69.02-11.15.07-3.46.05-6.26.17-8.4.36v-2.9c3.46-.19,6.08-.58,7.86-1.16,1.78-.58,2.98-1.74,3.59-3.48.61-1.74.92-4.35.92-7.83v-71.9c0-3.57-.3-6.21-.92-7.9-.61-1.69-1.81-2.85-3.59-3.48-1.78-.63-4.4-.99-7.86-1.09v-2.9ZM135.49,128.02c5.5.19,9.82.41,12.98.65,3.15.24,5.73.46,7.71.65,1.99.19,3.89.44,5.73.72,6.82,1.06,11.73,3.02,14.74,5.87,3,2.85,5.22,7.27,6.64,13.26l3.82,14.79c1.02,4.25,2.06,7.32,3.13,9.2,1.07,1.88,2.72,2.78,4.96,2.68,1.73-.1,3.18-.63,4.35-1.59,1.17-.96,2.42-2.27,3.74-3.91l2.29,1.59c-2.14,3-4.35,5.29-6.64,6.89-2.29,1.59-5.52,2.39-9.7,2.39-3.77,0-7.08-1.06-9.93-3.19-2.85-2.12-4.99-6.28-6.41-12.47l-3.36-14.5c-.92-4.15-1.96-7.75-3.13-10.8-1.17-3.04-2.8-5.44-4.89-7.18-2.09-1.74-5.17-2.61-9.24-2.61h-16.49l-.3-2.46Z" />
      <path class="cls-2"
        d="M384.87,76.56v2.9c-3.46.1-6.08.46-7.86,1.09-1.78.63-2.98,1.79-3.59,3.48-.61,1.69-.92,4.33-.92,7.9v71.9c0,3.48.3,6.09.92,7.83.61,1.74,1.81,2.9,3.59,3.48,1.78.58,4.4.97,7.86,1.16v2.9c-2.34-.19-5.27-.31-8.78-.36-3.51-.05-7.05-.07-10.61-.07-3.97,0-7.69.02-11.15.07-3.46.05-6.26.17-8.4.36v-2.9c3.46-.19,6.08-.58,7.86-1.16,1.78-.58,2.98-1.74,3.59-3.48.61-1.74.92-4.35.92-7.83v-79.72l.61.44-37.41,95.38h-2.44l-38.48-94.07v76.53c0,3.48.33,6.21.99,8.19.66,1.98,1.99,3.38,3.97,4.2,1.99.82,4.96,1.33,8.93,1.52v2.9c-1.83-.19-4.23-.31-7.18-.36-2.95-.05-5.75-.07-8.4-.07s-5.12.02-7.71.07c-2.6.05-4.76.17-6.49.36v-2.9c3.46-.19,6.08-.7,7.86-1.52,1.78-.82,2.98-2.22,3.59-4.2.61-1.98.92-4.71.92-8.19v-70.45c0-3.57-.3-6.21-.92-7.9-.61-1.69-1.81-2.85-3.59-3.48-1.78-.63-4.4-.99-7.86-1.09v-2.9c1.73.1,3.89.19,6.49.29,2.6.1,5.17.14,7.71.14,2.24,0,4.55-.05,6.95-.14,2.39-.09,4.4-.19,6.03-.29l34.67,86.68-2.6,1.16,34.36-87.41h7.18c3.56,0,7.1-.05,10.61-.14,3.51-.09,6.44-.19,8.78-.29Z" />
      <path class="cls-2"
        d="M473.9,76.56c-.41,3.38-.69,6.67-.84,9.86-.15,3.19-.23,5.61-.23,7.25,0,1.74.05,3.41.15,5,.1,1.59.2,2.92.3,3.99h-3.51c-.61-5.7-1.48-10.22-2.6-13.55-1.12-3.33-3.03-5.7-5.73-7.1-2.7-1.4-6.75-2.1-12.14-2.1h-12.68c-3.46,0-6.09.27-7.86.8-1.78.53-2.98,1.64-3.59,3.33-.61,1.69-.92,4.33-.92,7.9v71.9c0,3.48.31,6.09.92,7.83.61,1.74,1.81,2.88,3.59,3.41,1.78.53,4.4.8,7.86.8h11.15c6.41,0,11.27-.82,14.58-2.46,3.31-1.64,5.7-4.32,7.18-8.04,1.47-3.72,2.57-8.77,3.28-15.15h3.51c-.31,2.61-.46,6.09-.46,10.44,0,1.84.08,4.47.23,7.9.15,3.43.43,6.98.84,10.65-5.19-.19-11.05-.31-17.56-.36-6.52-.05-12.32-.07-17.41-.07h-8.63c-3.51,0-7.31.02-11.38.07-4.07.05-8.2.1-12.37.14-4.18.05-8.15.12-11.91.22v-2.9c3.46-.19,6.08-.58,7.86-1.16,1.78-.58,2.98-1.74,3.59-3.48.61-1.74.92-4.35.92-7.83v-71.9c0-3.57-.3-6.21-.92-7.9-.61-1.69-1.81-2.85-3.59-3.48-1.78-.63-4.4-.99-7.86-1.09v-2.9c3.77.1,7.74.17,11.91.22,4.17.05,8.3.1,12.37.14,4.07.05,7.86.07,11.38.07h8.63c4.68,0,10-.02,15.96-.07,5.96-.05,11.27-.17,15.96-.36ZM447.63,126.13v2.9h-27.95v-2.9h27.95ZM452.06,107c-.41,5.51-.59,9.71-.53,12.61.05,2.9.08,5.56.08,7.97s.05,5.07.15,7.97c.1,2.9.36,7.1.76,12.61h-3.51c-.41-3.09-.89-6.11-1.45-9.06-.56-2.95-1.78-5.36-3.67-7.25-1.88-1.88-5.07-2.83-9.54-2.83v-2.9c3.36,0,5.93-.65,7.71-1.96,1.78-1.3,3.08-2.97,3.89-5,.81-2.03,1.37-4.13,1.68-6.31.3-2.17.61-4.13.92-5.87h3.51Z" />
      <path class="cls-2"
        d="M567.66,76.56v2.9c-3.46.1-6.09.46-7.86,1.09-1.78.63-2.98,1.79-3.59,3.48-.61,1.69-.92,4.33-.92,7.9v71.9c0,3.48.31,6.09.92,7.83.61,1.74,1.81,2.88,3.59,3.41,1.78.53,4.4.8,7.86.8h11.15c4.78,0,8.68-.48,11.68-1.45,3-.96,5.4-2.49,7.18-4.57,1.78-2.08,3.13-4.86,4.05-8.33.92-3.48,1.63-7.73,2.14-12.76h3.51c-.31,3-.46,6.96-.46,11.89,0,1.84.08,4.47.23,7.9.15,3.43.43,6.98.84,10.65-5.19-.19-11.05-.31-17.56-.36-6.52-.05-12.32-.07-17.41-.07h-8.63c-3.51,0-7.31.02-11.38.07-4.07.05-8.2.1-12.37.14-4.18.05-8.15.12-11.91.22v-2.9c3.46-.19,6.08-.58,7.86-1.16,1.78-.58,2.98-1.74,3.59-3.48.61-1.74.92-4.35.92-7.83v-71.9c0-3.57-.3-6.21-.92-7.9-.61-1.69-1.81-2.85-3.59-3.48-1.78-.63-4.4-.99-7.86-1.09v-2.9c2.14.1,4.94.19,8.4.29,3.46.1,7.18.14,11.15.14,3.56,0,7.1-.05,10.61-.14,3.51-.09,6.44-.19,8.78-.29Z" />
      <path class="cls-2"
        d="M694.72,76.56c-.41,3.38-.69,6.67-.84,9.86-.15,3.19-.23,5.61-.23,7.25,0,1.74.05,3.41.15,5,.1,1.59.2,2.92.3,3.99h-3.51c-.61-5.7-1.48-10.22-2.6-13.55-1.12-3.33-3.03-5.7-5.73-7.1-2.7-1.4-6.75-2.1-12.14-2.1h-12.68c-3.46,0-6.09.27-7.86.8-1.78.53-2.98,1.64-3.59,3.33-.61,1.69-.92,4.33-.92,7.9v71.9c0,3.48.31,6.09.92,7.83.61,1.74,1.81,2.88,3.59,3.41,1.78.53,4.4.8,7.86.8h11.15c6.41,0,11.27-.82,14.58-2.46,3.31-1.64,5.7-4.32,7.18-8.04,1.47-3.72,2.57-8.77,3.28-15.15h3.51c-.31,2.61-.46,6.09-.46,10.44,0,1.84.08,4.47.23,7.9.15,3.43.43,6.98.84,10.65-5.19-.19-11.05-.31-17.56-.36-6.52-.05-12.32-.07-17.41-.07h-8.63c-3.51,0-7.31.02-11.38.07-4.07.05-8.2.1-12.37.14-4.18.05-8.15.12-11.91.22v-2.9c3.46-.19,6.08-.58,7.86-1.16,1.78-.58,2.98-1.74,3.59-3.48.61-1.74.92-4.35.92-7.83v-71.9c0-3.57-.3-6.21-.92-7.9-.61-1.69-1.81-2.85-3.59-3.48-1.78-.63-4.4-.99-7.86-1.09v-2.9c3.77.1,7.74.17,11.91.22,4.17.05,8.3.1,12.37.14,4.07.05,7.86.07,11.38.07h8.63c4.68,0,10-.02,15.96-.07,5.96-.05,11.27-.17,15.96-.36ZM668.46,126.13v2.9h-27.95v-2.9h27.95ZM672.88,107c-.41,5.51-.59,9.71-.53,12.61.05,2.9.08,5.56.08,7.97s.05,5.07.15,7.97c.1,2.9.36,7.1.76,12.61h-3.51c-.41-3.09-.89-6.11-1.45-9.06-.56-2.95-1.78-5.36-3.67-7.25-1.88-1.88-5.07-2.83-9.54-2.83v-2.9c3.36,0,5.93-.65,7.71-1.96,1.78-1.3,3.08-2.97,3.89-5,.81-2.03,1.37-4.13,1.68-6.31.3-2.17.61-4.13.92-5.87h3.51Z" />
      <path class="cls-2"
        d="M802.39,76.56v2.9c-1.93.39-4,1.5-6.19,3.33-2.19,1.84-4.15,4.93-5.88,9.28l-35.89,87.84h-2.44l-37.26-91.17c-1.53-3.67-3.26-6.11-5.19-7.32-1.93-1.21-3.72-1.86-5.35-1.96v-2.9c2.04.1,4.56.19,7.56.29,3,.1,5.93.14,8.78.14,3.97,0,7.69-.05,11.15-.14,3.46-.09,6.26-.19,8.4-.29v2.9c-3.46.1-6.09.48-7.86,1.16-1.78.68-2.75,1.86-2.9,3.55-.15,1.69.43,4.18,1.76,7.47l28.41,71.46-2.44,2.46,26.57-65.52c2.14-5.22,3.15-9.3,3.05-12.25-.1-2.95-1.27-5.05-3.51-6.31-2.24-1.25-5.5-1.93-9.77-2.03v-2.9c2.95.1,5.96.19,9.01.29,3.05.1,5.9.14,8.55.14s4.83-.05,6.57-.14c1.73-.09,3.36-.19,4.89-.29Z" />
      <path class="cls-2"
        d="M883.93,76.56c-.41,3.38-.69,6.67-.84,9.86-.15,3.19-.23,5.61-.23,7.25,0,1.74.05,3.41.15,5,.1,1.59.2,2.92.3,3.99h-3.51c-.61-5.7-1.48-10.22-2.6-13.55-1.12-3.33-3.03-5.7-5.73-7.1-2.7-1.4-6.75-2.1-12.14-2.1h-12.68c-3.46,0-6.09.27-7.86.8-1.78.53-2.98,1.64-3.59,3.33-.61,1.69-.92,4.33-.92,7.9v71.9c0,3.48.31,6.09.92,7.83.61,1.74,1.81,2.88,3.59,3.41,1.78.53,4.4.8,7.86.8h11.15c6.41,0,11.27-.82,14.58-2.46,3.31-1.64,5.7-4.32,7.18-8.04,1.47-3.72,2.57-8.77,3.28-15.15h3.51c-.31,2.61-.46,6.09-.46,10.44,0,1.84.08,4.47.23,7.9.15,3.43.43,6.98.84,10.65-5.19-.19-11.05-.31-17.56-.36-6.52-.05-12.32-.07-17.41-.07h-8.63c-3.51,0-7.31.02-11.38.07-4.07.05-8.2.1-12.37.14-4.18.05-8.15.12-11.91.22v-2.9c3.46-.19,6.08-.58,7.86-1.16,1.78-.58,2.98-1.74,3.59-3.48.61-1.74.92-4.35.92-7.83v-71.9c0-3.57-.3-6.21-.92-7.9-.61-1.69-1.81-2.85-3.59-3.48-1.78-.63-4.4-.99-7.86-1.09v-2.9c3.77.1,7.74.17,11.91.22,4.17.05,8.3.1,12.37.14,4.07.05,7.86.07,11.38.07h8.63c4.68,0,10-.02,15.96-.07,5.96-.05,11.27-.17,15.96-.36ZM857.67,126.13v2.9h-27.95v-2.9h27.95ZM862.1,107c-.41,5.51-.59,9.71-.53,12.61.05,2.9.08,5.56.08,7.97s.05,5.07.15,7.97c.1,2.9.36,7.1.76,12.61h-3.51c-.41-3.09-.89-6.11-1.45-9.06-.56-2.95-1.78-5.36-3.67-7.25-1.88-1.88-5.07-2.83-9.54-2.83v-2.9c3.36,0,5.93-.65,7.71-1.96,1.78-1.3,3.08-2.97,3.89-5,.81-2.03,1.37-4.13,1.68-6.31.3-2.17.61-4.13.92-5.87h3.51Z" />
      <path class="cls-2"
        d="M939.67,76.56v2.9c-3.46.1-6.09.46-7.86,1.09-1.78.63-2.98,1.79-3.59,3.48-.61,1.69-.92,4.33-.92,7.9v71.9c0,3.48.31,6.09.92,7.83.61,1.74,1.81,2.88,3.59,3.41,1.78.53,4.4.8,7.86.8h11.15c4.78,0,8.68-.48,11.68-1.45,3-.96,5.4-2.49,7.18-4.57,1.78-2.08,3.13-4.86,4.05-8.33.92-3.48,1.63-7.73,2.14-12.76h3.51c-.31,3-.46,6.96-.46,11.89,0,1.84.08,4.47.23,7.9.15,3.43.43,6.98.84,10.65-5.19-.19-11.05-.31-17.56-.36-6.52-.05-12.32-.07-17.41-.07h-8.63c-3.51,0-7.31.02-11.38.07-4.07.05-8.2.1-12.37.14-4.18.05-8.15.12-11.91.22v-2.9c3.46-.19,6.08-.58,7.86-1.16,1.78-.58,2.98-1.74,3.59-3.48.61-1.74.92-4.35.92-7.83v-71.9c0-3.57-.3-6.21-.92-7.9-.61-1.69-1.81-2.85-3.59-3.48-1.78-.63-4.4-.99-7.86-1.09v-2.9c2.14.1,4.94.19,8.4.29,3.46.1,7.18.14,11.15.14,3.56,0,7.1-.05,10.61-.14,3.51-.09,6.44-.19,8.78-.29Z" />
    </g>
  </g>
  <g>
    <g>
      <rect class="cls-1" x="218.96" y="130.26" width="7.97" height="48.92" />
      <polygon class="cls-1"
        points="224.27 127.75 224.27 78.82 226.93 78.82 229.58 78.82 229.58 78.82 232.24 78.82 232.24 179.18 229.58 179.18 229.58 127.75 226.93 127.75 224.27 127.75" />
      <polygon class="cls-1"
        points="232.24 45.54 234.9 45.54 234.9 45.54 234.9 14.77 237.56 14.77 237.56 45.54 240.21 45.54 240.21 102.02 237.56 102.02 237.56 179.18 234.9 179.18 234.9 76.3 232.24 76.3 232.24 45.54" />
      <polygon class="cls-1"
        points="245.53 104.54 248.18 104.54 248.18 153.46 245.53 153.46 242.87 153.46 242.87 179.18 240.21 179.18 240.21 104.54 242.87 104.54 245.53 104.54" />
      <polygon class="cls-1"
        points="250.84 155.99 253.5 155.99 253.5 179.18 250.84 179.18 248.18 179.18 245.53 179.18 245.53 155.99 248.18 155.99 250.84 155.99" />
    </g>
    <rect class="cls-1" x="20.33" y="226.33" width="255.64" height="7.3" />
    <rect class="cls-1" x="723.35" y="226.33" width="255.64" height="7.3" />
  </g>
</svg>